<svg width="22" height="16" viewBox="0 0 22 16" fill="none" xmlns="http://www.w3.org/2000/svg">
<path d="M18.48 6.68938C18.6209 6.32156 18.7 5.91937 18.7 5.5C18.7 3.67813 17.2219 2.2 15.4 2.2C14.7228 2.2 14.0903 2.40625 13.5678 2.75688C12.6156 1.10687 10.8384 0 8.8 0C5.76125 0 3.3 2.46125 3.3 5.5C3.3 5.59281 3.30344 5.68563 3.30687 5.77844C1.38187 6.45563 0 8.29125 0 10.45C0 13.1828 2.21719 15.4 4.95 15.4H17.6C20.0303 15.4 22 13.4303 22 11C22 8.87219 20.4875 7.095 18.48 6.68938ZM13.5231 8.8H11.275V12.65C11.275 12.9525 11.0275 13.2 10.725 13.2H9.075C8.7725 13.2 8.525 12.9525 8.525 12.65V8.8H6.27688C5.78531 8.8 5.54125 8.20875 5.88844 7.86156L9.51156 4.23844C9.72469 4.02531 10.0753 4.02531 10.2884 4.23844L13.9116 7.86156C14.2588 8.20875 14.0113 8.8 13.5231 8.8Z" fill="white"/>
</svg>
