<svg width="150" height="157" viewBox="0 0 150 157" fill="none" xmlns="http://www.w3.org/2000/svg">
<rect width="150" height="150" rx="75" fill="white"/>
<path d="M74.9995 75.75C79.944 75.75 84.7775 74.2838 88.8888 71.5368C93 68.7897 96.2043 64.8853 98.0965 60.3171C99.9887 55.749 100.484 50.7223 99.5191 45.8728C98.5545 41.0232 96.1735 36.5687 92.6772 33.0724C89.1809 29.576 84.7263 27.195 79.8768 26.2304C75.0272 25.2658 70.0006 25.7608 65.4324 27.653C60.8643 29.5452 56.9598 32.7495 54.2128 36.8608C51.4657 40.972 49.9995 45.8055 49.9995 50.75C49.9995 57.3804 52.6334 63.7393 57.3218 68.4277C62.0103 73.1161 68.3691 75.75 74.9995 75.75ZM74.9995 38.25C77.4718 38.25 79.8885 38.9831 81.9441 40.3567C83.9998 41.7302 85.6019 43.6824 86.548 45.9665C87.4941 48.2506 87.7416 50.7639 87.2593 53.1887C86.777 55.6134 85.5865 57.8407 83.8383 59.5889C82.0902 61.337 79.8629 62.5275 77.4381 63.0098C75.0134 63.4922 72.5 63.2446 70.216 62.2985C67.9319 61.3524 65.9797 59.7503 64.6061 57.6947C63.2326 55.639 62.4995 53.2223 62.4995 50.75C62.4995 47.4348 63.8165 44.2554 66.1607 41.9112C68.5049 39.567 71.6843 38.25 74.9995 38.25Z" fill="#231F20"/>
<path d="M75 88.25C63.3968 88.25 52.2688 92.8594 44.0641 101.064C35.8594 109.269 31.25 120.397 31.25 132C31.25 133.658 31.9085 135.247 33.0806 136.419C34.2527 137.592 35.8424 138.25 37.5 138.25C39.1576 138.25 40.7473 137.592 41.9194 136.419C43.0915 135.247 43.75 133.658 43.75 132C43.75 123.712 47.0424 115.763 52.9029 109.903C58.7634 104.042 66.712 100.75 75 100.75C83.288 100.75 91.2366 104.042 97.0971 109.903C102.958 115.763 106.25 123.712 106.25 132C106.25 133.658 106.908 135.247 108.081 136.419C109.253 137.592 110.842 138.25 112.5 138.25C114.158 138.25 115.747 137.592 116.919 136.419C118.092 135.247 118.75 133.658 118.75 132C118.75 120.397 114.141 109.269 105.936 101.064C97.7312 92.8594 86.6032 88.25 75 88.25Z" fill="#231F20"/>
</svg>
